<svg xmlns="http://www.w3.org/2000/svg" xmlns:xlink="http://www.w3.org/1999/xlink" id="body_1" preserveAspectRatio="xMinYMin meet" viewBox="0 0 793 1121"><defs><clipPath id="1"><path d="M0 841L0 -0.7999878L0 -0.7999878L595.2 -0.7999878L595.2 -0.7999878L595.2 841L595.2 841L0 841z" /></clipPath><clipPath id="2"><path d="M8.869E-06 841L595.2 841L595.2 841L595.2 -0.7999878L595.2 -0.7999878L8.869E-06 -0.7999878z" /></clipPath><clipPath id="3"><path d="M8.869E-06 841L595.2 841L595.2 841L595.2 -0.7999878L595.2 -0.7999878L8.869E-06 -0.7999878z" /></clipPath><clipPath id="4"><path d="M8.869E-06 841L595.2 841L595.2 841L595.2 -0.7999878L595.2 -0.7999878L8.869E-06 -0.7999878z" /></clipPath><clipPath id="5"><path d="M8.869E-06 841L595.2 841L595.2 841L595.2 -0.7999878L595.2 -0.7999878L8.869E-06 -0.7999878z" /></clipPath><clipPath id="6"><path d="M8.869E-06 841L595.2 841L595.2 841L595.2 -0.7999878L595.2 -0.7999878L8.869E-06 -0.7999878z" /></clipPath><clipPath id="7"><path d="M8.869E-06 841L595.2 841L595.2 841L595.2 -0.7999878L595.2 -0.7999878L8.869E-06 -0.7999878z" /></clipPath><clipPath id="8"><path d="M8.869E-06 841L595.2 841L595.2 841L595.2 -0.7999878L595.2 -0.7999878L8.869E-06 -0.7999878z" /></clipPath><clipPath id="9"><path d="M8.869E-06 841L595.2 841L595.2 841L595.2 -0.7999878L595.2 -0.7999878L8.869E-06 -0.7999878z" /></clipPath><clipPath id="10"><path d="M8.869E-06 841L595.2 841L595.2 841L595.2 -0.7999878L595.2 -0.7999878L8.869E-06 -0.7999878z" /></clipPath><clipPath id="11"><path d="M8.869E-06 841L595.2 841L595.2 841L595.2 -0.7999878L595.2 -0.7999878L8.869E-06 -0.7999878z" /></clipPath><clipPath id="12"><path d="M8.869E-06 841L595.2 841L595.2 841L595.2 -0.7999878L595.2 -0.7999878L8.869E-06 -0.7999878z" /></clipPath><clipPath id="13"><path d="M8.869E-06 841L595.2 841L595.2 841L595.2 -0.7999878L595.2 -0.7999878L8.869E-06 -0.7999878z" /></clipPath><clipPath id="14"><path d="M8.869E-06 841L595.2 841L595.2 841L595.2 -0.7999878L595.2 -0.7999878L8.869E-06 -0.7999878z" /></clipPath><clipPath id="15"><path d="M8.869E-06 841L595.2 841L595.2 841L595.2 -0.7999878L595.2 -0.7999878L8.869E-06 -0.7999878z" /></clipPath><clipPath id="16"><path d="M8.869E-06 841L595.2 841L595.2 841L595.2 -0.7999878L595.2 -0.7999878L8.869E-06 -0.7999878z" /></clipPath><clipPath id="17"><path d="M8.869E-06 841L595.2 841L595.2 841L595.2 -0.7999878L595.2 -0.7999878L8.869E-06 -0.7999878z" /></clipPath><clipPath id="18"><path d="M8.869E-06 841L595.2 841L595.2 841L595.2 -0.7999878L595.2 -0.7999878L8.869E-06 -0.7999878z" /></clipPath><clipPath id="19"><path d="M8.869E-06 841L595.2 841L595.2 841L595.2 -0.7999878L595.2 -0.7999878L8.869E-06 -0.7999878z" /></clipPath><clipPath id="20"><path d="M8.869E-06 841L595.2 841L595.2 841L595.2 -0.7999878L595.2 -0.7999878L8.869E-06 -0.7999878z" /></clipPath><clipPath id="21"><path d="M8.869E-06 841L595.2 841L595.2 841L595.2 -0.7999878L595.2 -0.7999878L8.869E-06 -0.7999878z" /></clipPath><clipPath id="22"><path d="M8.869E-06 841L595.2 841L595.2 841L595.2 -0.7999878L595.2 -0.7999878L8.869E-06 -0.7999878z" /></clipPath><clipPath id="23"><path d="M8.869E-06 841L595.2 841L595.2 841L595.2 -0.7999878L595.2 -0.7999878L8.869E-06 -0.7999878z" /></clipPath><clipPath id="24"><path d="M8.869E-06 841L595.2 841L595.2 841L595.2 -0.7999878L595.2 -0.7999878L8.869E-06 -0.7999878z" /></clipPath><clipPath id="25"><path d="M8.869E-06 841L595.2 841L595.2 841L595.2 -0.7999878L595.2 -0.7999878L8.869E-06 -0.7999878z" /></clipPath><clipPath id="26"><path d="M8.869E-06 841L595.2 841L595.2 841L595.2 -0.7999878L595.2 -0.7999878L8.869E-06 -0.7999878z" /></clipPath><clipPath id="27"><path d="M8.869E-06 841L595.2 841L595.2 841L595.2 -0.7999878L595.2 -0.7999878L8.869E-06 -0.7999878z" /></clipPath><clipPath id="28"><path d="M8.869E-06 841L595.2 841L595.2 841L595.2 -0.7999878L595.2 -0.7999878L8.869E-06 -0.7999878z" /></clipPath><clipPath id="29"><path d="M8.869E-06 841L595.2 841L595.2 841L595.2 -0.7999878L595.2 -0.7999878L8.869E-06 -0.7999878z" /></clipPath><clipPath id="30"><path d="M8.869E-06 841L595.2 841L595.2 841L595.2 -0.7999878L595.2 -0.7999878L8.869E-06 -0.7999878z" /></clipPath><clipPath id="31"><path d="M8.869E-06 841L595.2 841L595.2 841L595.2 -0.7999878L595.2 -0.7999878L8.869E-06 -0.7999878z" /></clipPath><clipPath id="32"><path d="M8.869E-06 841L595.2 841L595.2 841L595.2 -0.7999878L595.2 -0.7999878L8.869E-06 -0.7999878z" /></clipPath><clipPath id="33"><path d="M8.869E-06 841L595.2 841L595.2 841L595.2 -0.7999878L595.2 -0.7999878L8.869E-06 -0.7999878z" /></clipPath><clipPath id="34"><path d="M8.869E-06 841L595.2 841L595.2 841L595.2 -0.7999878L595.2 -0.7999878L8.869E-06 -0.7999878z" /></clipPath><clipPath id="35"><path d="M8.869E-06 841L595.2 841L595.2 841L595.2 -0.7999878L595.2 -0.7999878L8.869E-06 -0.7999878z" /></clipPath><clipPath id="36"><path d="M8.869E-06 841L595.2 841L595.2 841L595.2 -0.7999878L595.2 -0.7999878L8.869E-06 -0.7999878z" /></clipPath><clipPath id="37"><path d="M8.869E-06 841L595.2 841L595.2 841L595.2 -0.7999878L595.2 -0.7999878L8.869E-06 -0.7999878z" /></clipPath><clipPath id="38"><path d="M8.869E-06 841L595.2 841L595.2 841L595.2 -0.7999878L595.2 -0.7999878L8.869E-06 -0.7999878z" /></clipPath><clipPath id="39"><path d="M8.869E-06 841L595.2 841L595.2 841L595.2 -0.7999878L595.2 -0.7999878L8.869E-06 -0.7999878z" /></clipPath><clipPath id="40"><path d="M8.869E-06 841L595.2 841L595.2 841L595.2 -0.7999878L595.2 -0.7999878L8.869E-06 -0.7999878z" /></clipPath><clipPath id="41"><path d="M8.869E-06 841L595.2 841L595.2 841L595.2 -0.7999878L595.2 -0.7999878L8.869E-06 -0.7999878z" /></clipPath><clipPath id="42"><path d="M8.869E-06 841L595.2 841L595.2 841L595.2 -0.7999878L595.2 -0.7999878L8.869E-06 -0.7999878z" /></clipPath><clipPath id="43"><path d="M8.869E-06 841L595.2 841L595.2 841L595.2 -0.7999878L595.2 -0.7999878L8.869E-06 -0.7999878z" /></clipPath><clipPath id="44"><path d="M8.869E-06 841L595.2 841L595.2 841L595.2 -0.7999878L595.2 -0.7999878L8.869E-06 -0.7999878z" /></clipPath><clipPath id="45"><path d="M8.869E-06 841L595.2 841L595.2 841L595.2 -0.7999878L595.2 -0.7999878L8.869E-06 -0.7999878z" /></clipPath><clipPath id="46"><path d="M8.869E-06 841L595.2 841L595.2 841L595.2 -0.7999878L595.2 -0.7999878L8.869E-06 -0.7999878z" /></clipPath><clipPath id="47"><path d="M8.869E-06 841L595.2 841L595.2 841L595.2 -0.7999878L595.2 -0.7999878L8.869E-06 -0.7999878z" /></clipPath><clipPath id="48"><path d="M8.869E-06 841L595.2 841L595.2 841L595.2 -0.7999878L595.2 -0.7999878L8.869E-06 -0.7999878z" /></clipPath><clipPath id="49"><path d="M8.869E-06 841L595.2 841L595.2 841L595.2 -0.7999878L595.2 -0.7999878L8.869E-06 -0.7999878z" /></clipPath><clipPath id="50"><path d="M8.869E-06 841L595.2 841L595.2 841L595.2 -0.7999878L595.2 -0.7999878L8.869E-06 -0.7999878z" /></clipPath><clipPath id="51"><path d="M8.869E-06 841L595.2 841L595.2 841L595.2 -0.7999878L595.2 -0.7999878L8.869E-06 -0.7999878z" /></clipPath><clipPath id="52"><path d="M8.869E-06 841L595.2 841L595.2 841L595.2 -0.7999878L595.2 -0.7999878L8.869E-06 -0.7999878z" /></clipPath><clipPath id="53"><path d="M8.869E-06 841L595.2 841L595.2 841L595.2 -0.7999878L595.2 -0.7999878L8.869E-06 -0.7999878z" /></clipPath><clipPath id="54"><path d="M8.869E-06 841L595.2 841L595.2 841L595.2 -0.7999878L595.2 -0.7999878L8.869E-06 -0.7999878z" /></clipPath><clipPath id="55"><path d="M8.869E-06 841L595.2 841L595.2 841L595.2 -0.7999878L595.2 -0.7999878L8.869E-06 -0.7999878z" /></clipPath><clipPath id="56"><path d="M8.869E-06 841L595.2 841L595.2 841L595.2 -0.7999878L595.2 -0.7999878L8.869E-06 -0.7999878z" /></clipPath><clipPath id="57"><path d="M8.869E-06 841L595.2 841L595.2 841L595.2 -0.7999878L595.2 -0.7999878L8.869E-06 -0.7999878z" /></clipPath><clipPath id="58"><path d="M8.869E-06 841L595.2 841L595.2 841L595.2 -0.7999878L595.2 -0.7999878L8.869E-06 -0.7999878z" /></clipPath><clipPath id="59"><path d="M8.869E-06 841L595.2 841L595.2 841L595.2 -0.7999878L595.2 -0.7999878L8.869E-06 -0.7999878z" /></clipPath><clipPath id="60"><path d="M8.869E-06 841L595.2 841L595.2 841L595.2 -0.7999878L595.2 -0.7999878L8.869E-06 -0.7999878z" /></clipPath><clipPath id="61"><path d="M1.7738E-05 119.72L0.6000078 119.72L0.6000078 119.72L0.6000078 119.12L0.6000078 119.12L1.7738E-05 119.12z" /></clipPath><clipPath id="62"><path d="M42.65 118.67L206.03 118.67L206.03 118.67L206.03 55.64496L206.03 55.64496L42.65 55.64496z" /></clipPath><clipPath id="63"><path d="M42.65 118.68L206.03 118.68L206.03 118.68L206.03 55.65497L206.03 55.65497L42.65 55.65497z" /></clipPath><clipPath id="64"><path d="M42.65 118.68L206.03 118.68L206.03 118.68L206.03 55.65497L206.03 55.65497L42.65 55.65497z" /></clipPath><clipPath id="65"><path d="M42.65 118.68L206.03 118.68L206.03 118.68L206.03 55.65497L206.03 55.65497L42.65 55.65497z" /></clipPath><clipPath id="66"><path d="M42.65 118.68L206.03 118.68L206.03 118.68L206.03 55.65497L206.03 55.65497L42.65 55.65497z" /></clipPath><clipPath id="67"><path d="M42.65 118.68L206.03 118.68L206.03 118.68L206.03 55.65497L206.03 55.65497L42.65 55.65497z" /></clipPath><clipPath id="68"><path d="M42.65 118.68L206.03 118.68L206.03 118.68L206.03 55.65497L206.03 55.65497L42.65 55.65497z" /></clipPath><clipPath id="69"><path d="M42.65 118.68L206.03 118.68L206.03 118.68L206.03 55.65497L206.03 55.65497L42.65 55.65497z" /></clipPath><clipPath id="70"><path d="M47.45 274.8L557.37 274.8L557.37 274.8L557.37 149.3L557.37 149.3L47.45 149.3z" /></clipPath><clipPath id="71"><path d="M47.45 274.8L557.37 274.8L557.37 274.8L557.37 149.3L557.37 149.3L47.45 149.3z" /></clipPath><clipPath id="72"><path d="M47.45 274.8L557.37 274.8L557.37 274.8L557.37 149.3L557.37 149.3L47.45 149.3z" /></clipPath><clipPath id="73"><path d="M47.45 274.8L557.37 274.8L557.37 274.8L557.37 149.3L557.37 149.3L47.45 149.3z" /></clipPath><clipPath id="74"><path d="M47.45 274.8L557.37 274.8L557.37 274.8L557.37 149.3L557.37 149.3L47.45 149.3z" /></clipPath><clipPath id="75"><path d="M47.45 274.8L557.37 274.8L557.37 274.8L557.37 149.3L557.37 149.3L47.45 149.3z" /></clipPath><clipPath id="76"><path d="M47.45 274.8L557.37 274.8L557.37 274.8L557.37 149.3L557.37 149.3L47.45 149.3z" /></clipPath><clipPath id="77"><path d="M47.45 274.8L557.37 274.8L557.37 274.8L557.37 149.3L557.37 149.3L47.45 149.3z" /></clipPath><clipPath id="78"><path d="M47.45 274.8L557.37 274.8L557.37 274.8L557.37 149.3L557.37 149.3L47.45 149.3z" /></clipPath><clipPath id="79"><path d="M47.45 274.8L557.37 274.8L557.37 274.8L557.37 149.3L557.37 149.3L47.45 149.3z" /></clipPath><clipPath id="80"><path d="M47.45 274.8L557.37 274.8L557.37 274.8L557.37 149.3L557.37 149.3L47.45 149.3z" /></clipPath><clipPath id="81"><path d="M47.45 274.8L557.37 274.8L557.37 274.8L557.37 149.3L557.37 149.3L47.45 149.3z" /></clipPath><clipPath id="82"><path d="M47.45 274.8L557.37 274.8L557.37 274.8L557.37 149.3L557.37 149.3L47.45 149.3z" /></clipPath><clipPath id="83"><path d="M47.45 274.8L557.37 274.8L557.37 274.8L557.37 149.3L557.37 149.3L47.45 149.3z" /></clipPath><clipPath id="84"><path d="M47.45 274.8L557.37 274.8L557.37 274.8L557.37 149.3L557.37 149.3L47.45 149.3z" /></clipPath><clipPath id="85"><path d="M47.45 274.8L557.37 274.8L557.37 274.8L557.37 149.3L557.37 149.3L47.45 149.3z" /></clipPath><clipPath id="86"><path d="M47.45 274.8L557.37 274.8L557.37 274.8L557.37 149.3L557.37 149.3L47.45 149.3z" /></clipPath><clipPath id="87"><path d="M47.45 274.8L557.37 274.8L557.37 274.8L557.37 149.3L557.37 149.3L47.45 149.3z" /></clipPath><clipPath id="88"><path d="M47.45 274.8L557.37 274.8L557.37 274.8L557.37 149.3L557.37 149.3L47.45 149.3z" /></clipPath><clipPath id="89"><path d="M47.45 274.8L557.37 274.8L557.37 274.8L557.37 149.3L557.37 149.3L47.45 149.3z" /></clipPath><clipPath id="90"><path d="M47.45 274.8L557.37 274.8L557.37 274.8L557.37 149.3L557.37 149.3L47.45 149.3z" /></clipPath><clipPath id="91"><path d="M47.45 274.8L557.37 274.8L557.37 274.8L557.37 149.3L557.37 149.3L47.45 149.3z" /></clipPath><clipPath id="92"><path d="M47.45 274.8L557.37 274.8L557.37 274.8L557.37 149.3L557.37 149.3L47.45 149.3z" /></clipPath><clipPath id="93"><path d="M47.45 274.8L557.37 274.8L557.37 274.8L557.37 149.3L557.37 149.3L47.45 149.3z" /></clipPath><clipPath id="94"><path d="M47.45 274.8L557.37 274.8L557.37 274.8L557.37 149.3L557.37 149.3L47.45 149.3z" /></clipPath><clipPath id="95"><path d="M47.45 274.8L557.37 274.8L557.37 274.8L557.37 149.3L557.37 149.3L47.45 149.3z" /></clipPath><clipPath id="96"><path d="M47.45 274.8L557.37 274.8L557.37 274.8L557.37 149.3L557.37 149.3L47.45 149.3z" /></clipPath><clipPath id="97"><path d="M47.45 274.8L557.37 274.8L557.37 274.8L557.37 149.3L557.37 149.3L47.45 149.3z" /></clipPath><clipPath id="98"><path d="M47.45 274.8L557.37 274.8L557.37 274.8L557.37 149.3L557.37 149.3L47.45 149.3z" /></clipPath><clipPath id="99"><path d="M47.45 274.8L557.37 274.8L557.37 274.8L557.37 149.3L557.37 149.3L47.45 149.3z" /></clipPath><clipPath id="100"><path d="M47.45 274.8L557.37 274.8L557.37 274.8L557.37 149.3L557.37 149.3L47.45 149.3z" /></clipPath><clipPath id="101"><path d="M47.45 274.8L557.37 274.8L557.37 274.8L557.37 149.3L557.37 149.3L47.45 149.3z" /></clipPath><clipPath id="102"><path d="M47.45 274.8L557.37 274.8L557.37 274.8L557.37 149.3L557.37 149.3L47.45 149.3z" /></clipPath><clipPath id="103"><path d="M47.45 274.8L557.37 274.8L557.37 274.8L557.37 149.3L557.37 149.3L47.45 149.3z" /></clipPath><clipPath id="104"><path d="M47.45 274.8L557.37 274.8L557.37 274.8L557.37 149.3L557.37 149.3L47.45 149.3z" /></clipPath><clipPath id="105"><path d="M47.45 274.8L557.37 274.8L557.37 274.8L557.37 149.3L557.37 149.3L47.45 149.3z" /></clipPath><clipPath id="106"><path d="M47.45 274.8L557.37 274.8L557.37 274.8L557.37 149.3L557.37 149.3L47.45 149.3z" /></clipPath><clipPath id="107"><path d="M47.45 274.8L557.37 274.8L557.37 274.8L557.37 149.3L557.37 149.3L47.45 149.3z" /></clipPath><clipPath id="108"><path d="M47.45 274.8L557.37 274.8L557.37 274.8L557.37 149.3L557.37 149.3L47.45 149.3z" /></clipPath><clipPath id="109"><path d="M47.45 274.8L557.37 274.8L557.37 274.8L557.37 149.3L557.37 149.3L47.45 149.3z" /></clipPath><clipPath id="110"><path d="M47.45 274.8L557.37 274.8L557.37 274.8L557.37 149.3L557.37 149.3L47.45 149.3z" /></clipPath><clipPath id="111"><path d="M47.45 274.8L557.37 274.8L557.37 274.8L557.37 149.3L557.37 149.3L47.45 149.3z" /></clipPath><clipPath id="112"><path d="M47.45 274.8L557.37 274.8L557.37 274.8L557.37 149.3L557.37 149.3L47.45 149.3z" /></clipPath><clipPath id="113"><path d="M47.45 274.8L557.37 274.8L557.37 274.8L557.37 149.3L557.37 149.3L47.45 149.3z" /></clipPath><clipPath id="114"><path d="M47.45 274.8L557.37 274.8L557.37 274.8L557.37 149.3L557.37 149.3L47.45 149.3z" /></clipPath><clipPath id="115"><path d="M47.45 274.8L557.37 274.8L557.37 274.8L557.37 149.3L557.37 149.3L47.45 149.3z" /></clipPath><clipPath id="116"><path d="M47.45 274.8L557.37 274.8L557.37 274.8L557.37 149.3L557.37 149.3L47.45 149.3z" /></clipPath><clipPath id="117"><path d="M47.45 274.8L557.37 274.8L557.37 274.8L557.37 149.3L557.37 149.3L47.45 149.3z" /></clipPath><clipPath id="118"><path d="M47.45 274.8L557.37 274.8L557.37 274.8L557.37 149.3L557.37 149.3L47.45 149.3z" /></clipPath><clipPath id="119"><path d="M47.45 274.8L557.37 274.8L557.37 274.8L557.37 149.3L557.37 149.3L47.45 149.3z" /></clipPath><clipPath id="120"><path d="M47.45 274.8L557.37 274.8L557.37 274.8L557.37 149.3L557.37 149.3L47.45 149.3z" /></clipPath><clipPath id="121"><path d="M47.45 274.8L557.37 274.8L557.37 274.8L557.37 149.3L557.37 149.3L47.45 149.3z" /></clipPath><clipPath id="122"><path d="M47.45 274.8L557.37 274.8L557.37 274.8L557.37 149.3L557.37 149.3L47.45 149.3z" /></clipPath><clipPath id="123"><path d="M47.45 274.8L557.37 274.8L557.37 274.8L557.37 149.3L557.37 149.3L47.45 149.3z" /></clipPath><clipPath id="124"><path d="M47.45 274.8L557.37 274.8L557.37 274.8L557.37 149.3L557.37 149.3L47.45 149.3z" /></clipPath><clipPath id="125"><path d="M47.45 274.8L557.37 274.8L557.37 274.8L557.37 149.3L557.37 149.3L47.45 149.3z" /></clipPath><clipPath id="126"><path d="M47.45 274.8L557.37 274.8L557.37 274.8L557.37 149.3L557.37 149.3L47.45 149.3z" /></clipPath><clipPath id="127"><path d="M47.45 274.8L557.37 274.8L557.37 274.8L557.37 149.3L557.37 149.3L47.45 149.3z" /></clipPath><clipPath id="128"><path d="M47.45 274.8L557.37 274.8L557.37 274.8L557.37 149.3L557.37 149.3L47.45 149.3z" /></clipPath><clipPath id="129"><path d="M47.45 274.8L557.37 274.8L557.37 274.8L557.37 149.3L557.37 149.3L47.45 149.3z" /></clipPath><clipPath id="130"><path d="M47.45 274.8L557.37 274.8L557.37 274.8L557.37 149.3L557.37 149.3L47.45 149.3z" /></clipPath><clipPath id="131"><path d="M47.45 274.8L557.37 274.8L557.37 274.8L557.37 149.3L557.37 149.3L47.45 149.3z" /></clipPath><clipPath id="132"><path d="M47.45 274.8L557.37 274.8L557.37 274.8L557.37 149.3L557.37 149.3L47.45 149.3z" /></clipPath><clipPath id="133"><path d="M47.45 274.8L557.37 274.8L557.37 274.8L557.37 149.3L557.37 149.3L47.45 149.3z" /></clipPath><clipPath id="134"><path d="M47.45 274.8L557.37 274.8L557.37 274.8L557.37 149.3L557.37 149.3L47.45 149.3z" /></clipPath><clipPath id="135"><path d="M47.45 274.8L557.37 274.8L557.37 274.8L557.37 149.3L557.37 149.3L47.45 149.3z" /></clipPath><clipPath id="136"><path d="M47.45 274.8L557.37 274.8L557.37 274.8L557.37 149.3L557.37 149.3L47.45 149.3z" /></clipPath><clipPath id="137"><path d="M197 151.7L359.77 151.7L359.77 151.7L359.77 49.63L359.77 49.63L197 49.63z" /></clipPath><clipPath id="138"><path d="M197 151.7L359.77 151.7L359.77 151.7L359.77 49.63L359.77 49.63L197 49.63z" /></clipPath><clipPath id="139"><path d="M197 151.7L359.77 151.7L359.77 151.7L359.77 49.63L359.77 49.63L197 49.63z" /></clipPath><clipPath id="140"><path d="M197 151.7L359.77 151.7L359.77 151.7L359.77 49.63L359.77 49.63L197 49.63z" /></clipPath><clipPath id="141"><path d="M197 151.7L359.77 151.7L359.77 151.7L359.77 49.63L359.77 49.63L197 49.63z" /></clipPath><clipPath id="142"><path d="M197 151.7L359.77 151.7L359.77 151.7L359.77 49.63L359.77 49.63L197 49.63z" /></clipPath><clipPath id="143"><path d="M197 151.7L359.77 151.7L359.77 151.7L359.77 49.63L359.77 49.63L197 49.63z" /></clipPath><clipPath id="144"><path d="M197 151.7L359.77 151.7L359.77 151.7L359.77 49.63L359.77 49.63L197 49.63z" /></clipPath><clipPath id="145"><path d="M197 151.7L359.77 151.7L359.77 151.7L359.77 49.63L359.77 49.63L197 49.63z" /></clipPath><clipPath id="146"><path d="M197 151.7L359.77 151.7L359.77 151.7L359.77 49.63L359.77 49.63L197 49.63z" /></clipPath><clipPath id="147"><path d="M197 151.7L359.77 151.7L359.77 151.7L359.77 49.63L359.77 49.63L197 49.63z" /></clipPath><clipPath id="148"><path d="M197 151.7L359.77 151.7L359.77 151.7L359.77 49.63L359.77 49.63L197 49.63z" /></clipPath><clipPath id="149"><path d="M197 151.7L359.77 151.7L359.77 151.7L359.77 49.63L359.77 49.63L197 49.63z" /></clipPath><clipPath id="150"><path d="M197 151.7L359.77 151.7L359.77 151.7L359.77 49.63L359.77 49.63L197 49.63z" /></clipPath><clipPath id="151"><path d="M197 151.7L359.77 151.7L359.77 151.7L359.77 49.63L359.77 49.63L197 49.63z" /></clipPath><clipPath id="152"><path d="M197 151.7L359.77 151.7L359.77 151.7L359.77 49.63L359.77 49.63L197 49.63z" /></clipPath><clipPath id="153"><path d="M197 151.7L359.77 151.7L359.77 151.7L359.77 49.63L359.77 49.63L197 49.63z" /></clipPath><clipPath id="154"><path d="M197 151.7L359.77 151.7L359.77 151.7L359.77 49.63L359.77 49.63L197 49.63z" /></clipPath><clipPath id="155"><path d="M39.65 145.7L107.5 145.7L107.5 145.7L107.5 129.5L107.5 129.5L39.65 129.5z" /></clipPath><clipPath id="156"><path d="M39.65 145.7L107.5 145.7L107.5 145.7L107.5 129.5L107.5 129.5L39.65 129.5z" /></clipPath><clipPath id="157"><path d="M39.65 145.7L107.5 145.7L107.5 145.7L107.5 129.5L107.5 129.5L39.65 129.5z" /></clipPath><clipPath id="158"><path d="M369.98 151.7L560.98 151.7L560.98 151.7L560.98 49.02002L560.98 49.02002L369.98 49.02002z" /></clipPath><clipPath id="159"><path d="M369.98 151.7L560.98 151.7L560.98 151.7L560.98 49.02002L560.98 49.02002L369.98 49.02002z" /></clipPath><clipPath id="160"><path d="M369.98 151.7L560.98 151.7L560.98 151.7L560.98 49.02002L560.98 49.02002L369.98 49.02002z" /></clipPath><clipPath id="161"><path d="M369.98 151.7L560.98 151.7L560.98 151.7L560.98 49.02002L560.98 49.02002L369.98 49.02002z" /></clipPath><clipPath id="162"><path d="M369.98 151.7L560.98 151.7L560.98 151.7L560.98 49.02002L560.98 49.02002L369.98 49.02002z" /></clipPath><clipPath id="163"><path d="M369.98 151.7L560.98 151.7L560.98 151.7L560.98 49.02002L560.98 49.02002L369.98 49.02002z" /></clipPath><clipPath id="164"><path d="M369.98 151.7L560.98 151.7L560.98 151.7L560.98 49.02002L560.98 49.02002L369.98 49.02002z" /></clipPath><clipPath id="165"><path d="M369.98 151.7L560.98 151.7L560.98 151.7L560.98 49.02002L560.98 49.02002L369.98 49.02002z" /></clipPath><clipPath id="166"><path d="M369.98 151.7L560.98 151.7L560.98 151.7L560.98 49.02002L560.98 49.02002L369.98 49.02002z" /></clipPath><clipPath id="167"><path d="M369.98 151.7L560.98 151.7L560.98 151.7L560.98 49.02002L560.98 49.02002L369.98 49.02002z" /></clipPath><clipPath id="168"><path d="M369.98 151.7L560.98 151.7L560.98 151.7L560.98 49.02002L560.98 49.02002L369.98 49.02002z" /></clipPath><clipPath id="169"><path d="M369.98 151.7L560.98 151.7L560.98 151.7L560.98 49.02002L560.98 49.02002L369.98 49.02002z" /></clipPath><clipPath id="170"><path d="M369.98 151.7L560.98 151.7L560.98 151.7L560.98 49.02002L560.98 49.02002L369.98 49.02002z" /></clipPath><clipPath id="171"><path d="M369.98 151.7L560.98 151.7L560.98 151.7L560.98 49.02002L560.98 49.02002L369.98 49.02002z" /></clipPath><clipPath id="172"><path d="M36.025 516.78L103.9 516.78L103.9 516.78L103.9 500.555L103.9 500.555L36.025 500.555z" /></clipPath><clipPath id="173"><path d="M36.025 516.78L103.9 516.78L103.9 516.78L103.9 500.555L103.9 500.555L36.025 500.555z" /></clipPath><clipPath id="174"><path d="M36.025 516.78L103.9 516.78L103.9 516.78L103.9 500.555L103.9 500.555L36.025 500.555z" /></clipPath><clipPath id="175"><path d="M50.45 606.23L527.95 606.23L527.95 606.23L527.95 525.18L527.95 525.18L50.45 525.18z" /></clipPath><clipPath id="176"><path d="M50.45 606.23L527.95 606.23L527.95 606.23L527.95 525.18L527.95 525.18L50.45 525.18z" /></clipPath><clipPath id="177"><path d="M50.45 606.23L527.95 606.23L527.95 606.23L527.95 525.18L527.95 525.18L50.45 525.18z" /></clipPath><clipPath id="178"><path d="M50.45 606.23L527.95 606.23L527.95 606.23L527.95 525.18L527.95 525.18L50.45 525.18z" /></clipPath><clipPath id="179"><path d="M50.45 606.23L527.95 606.23L527.95 606.23L527.95 525.18L527.95 525.18L50.45 525.18z" /></clipPath><clipPath id="180"><path d="M50.45 606.23L527.95 606.23L527.95 606.23L527.95 525.18L527.95 525.18L50.45 525.18z" /></clipPath><clipPath id="181"><path d="M50.45 606.23L527.95 606.23L527.95 606.23L527.95 525.18L527.95 525.18L50.45 525.18z" /></clipPath><clipPath id="182"><path d="M50.45 606.23L527.95 606.23L527.95 606.23L527.95 525.18L527.95 525.18L50.45 525.18z" /></clipPath><clipPath id="183"><path d="M50.45 606.23L527.95 606.23L527.95 606.23L527.95 525.18L527.95 525.18L50.45 525.18z" /></clipPath><clipPath id="184"><path d="M50.45 606.23L527.95 606.23L527.95 606.23L527.95 525.18L527.95 525.18L50.45 525.18z" /></clipPath><clipPath id="185"><path d="M50.45 606.23L527.95 606.23L527.95 606.23L527.95 525.18L527.95 525.18L50.45 525.18z" /></clipPath><clipPath id="186"><path d="M50.45 606.23L527.95 606.23L527.95 606.23L527.95 525.18L527.95 525.18L50.45 525.18z" /></clipPath><clipPath id="187"><path d="M50.45 606.23L527.95 606.23L527.95 606.23L527.95 525.18L527.95 525.18L50.45 525.18z" /></clipPath><clipPath id="188"><path d="M50.45 606.23L527.95 606.23L527.95 606.23L527.95 525.18L527.95 525.18L50.45 525.18z" /></clipPath><clipPath id="189"><path d="M50.45 606.23L527.95 606.23L527.95 606.23L527.95 525.18L527.95 525.18L50.45 525.18z" /></clipPath><clipPath id="190"><path d="M50.45 606.23L527.95 606.23L527.95 606.23L527.95 525.18L527.95 525.18L50.45 525.18z" /></clipPath><clipPath id="191"><path d="M50.45 606.23L527.95 606.23L527.95 606.23L527.95 525.18L527.95 525.18L50.45 525.18z" /></clipPath><clipPath id="192"><path d="M50.45 606.23L527.95 606.23L527.95 606.23L527.95 525.18L527.95 525.18L50.45 525.18z" /></clipPath><clipPath id="193"><path d="M50.45 606.23L527.95 606.23L527.95 606.23L527.95 525.18L527.95 525.18L50.45 525.18z" /></clipPath><clipPath id="194"><path d="M50.45 606.23L527.95 606.23L527.95 606.23L527.95 525.18L527.95 525.18L50.45 525.18z" /></clipPath><clipPath id="195"><path d="M50.45 606.23L527.95 606.23L527.95 606.23L527.95 525.18L527.95 525.18L50.45 525.18z" /></clipPath><clipPath id="196"><path d="M50.45 606.23L527.95 606.23L527.95 606.23L527.95 525.18L527.95 525.18L50.45 525.18z" /></clipPath><clipPath id="197"><path d="M50.45 606.23L527.95 606.23L527.95 606.23L527.95 525.18L527.95 525.18L50.45 525.18z" /></clipPath><clipPath id="198"><path d="M50.45 606.23L527.95 606.23L527.95 606.23L527.95 525.18L527.95 525.18L50.45 525.18z" /></clipPath><clipPath id="199"><path d="M50.45 606.23L527.95 606.23L527.95 606.23L527.95 525.18L527.95 525.18L50.45 525.18z" /></clipPath><clipPath id="200"><path d="M50.45 606.23L527.95 606.23L527.95 606.23L527.95 525.18L527.95 525.18L50.45 525.18z" /></clipPath><clipPath id="201"><path d="M50.45 606.23L527.95 606.23L527.95 606.23L527.95 525.18L527.95 525.18L50.45 525.18z" /></clipPath><clipPath id="202"><path d="M50.45 606.23L527.95 606.23L527.95 606.23L527.95 525.18L527.95 525.18L50.45 525.18z" /></clipPath><clipPath id="203"><path d="M50.45 606.23L527.95 606.23L527.95 606.23L527.95 525.18L527.95 525.18L50.45 525.18z" /></clipPath><clipPath id="204"><path d="M50.45 606.23L527.95 606.23L527.95 606.23L527.95 525.18L527.95 525.18L50.45 525.18z" /></clipPath><clipPath id="205"><path d="M50.45 606.23L527.95 606.23L527.95 606.23L527.95 525.18L527.95 525.18L50.45 525.18z" /></clipPath><clipPath id="206"><path d="M50.45 606.23L527.95 606.23L527.95 606.23L527.95 525.18L527.95 525.18L50.45 525.18z" /></clipPath><clipPath id="207"><path d="M47.45 716.13L557.37 716.13L557.37 716.13L557.37 634.455L557.37 634.455L47.45 634.455z" /></clipPath><clipPath id="208"><path d="M47.45 716.13L557.37 716.13L557.37 716.13L557.37 634.455L557.37 634.455L47.45 634.455z" /></clipPath><clipPath id="209"><path d="M47.45 716.13L557.37 716.13L557.37 716.13L557.37 634.455L557.37 634.455L47.45 634.455z" /></clipPath><clipPath id="210"><path d="M47.45 716.13L557.37 716.13L557.37 716.13L557.37 634.455L557.37 634.455L47.45 634.455z" /></clipPath><clipPath id="211"><path d="M47.45 716.13L557.37 716.13L557.37 716.13L557.37 634.455L557.37 634.455L47.45 634.455z" /></clipPath><clipPath id="212"><path d="M47.45 716.13L557.37 716.13L557.37 716.13L557.37 634.455L557.37 634.455L47.45 634.455z" /></clipPath><clipPath id="213"><path d="M47.45 716.13L557.37 716.13L557.37 716.13L557.37 634.455L557.37 634.455L47.45 634.455z" /></clipPath><clipPath id="214"><path d="M47.45 716.13L557.37 716.13L557.37 716.13L557.37 634.455L557.37 634.455L47.45 634.455z" /></clipPath><clipPath id="215"><path d="M47.45 716.13L557.37 716.13L557.37 716.13L557.37 634.455L557.37 634.455L47.45 634.455z" /></clipPath><clipPath id="216"><path d="M47.45 716.13L557.37 716.13L557.37 716.13L557.37 634.455L557.37 634.455L47.45 634.455z" /></clipPath><clipPath id="217"><path d="M47.45 716.13L557.37 716.13L557.37 716.13L557.37 634.455L557.37 634.455L47.45 634.455z" /></clipPath><clipPath id="218"><path d="M47.45 716.13L557.37 716.13L557.37 716.13L557.37 634.455L557.37 634.455L47.45 634.455z" /></clipPath><clipPath id="219"><path d="M47.45 716.13L557.37 716.13L557.37 716.13L557.37 634.455L557.37 634.455L47.45 634.455z" /></clipPath><clipPath id="220"><path d="M47.45 716.13L557.37 716.13L557.37 716.13L557.37 634.455L557.37 634.455L47.45 634.455z" /></clipPath><clipPath id="221"><path d="M47.45 716.13L557.37 716.13L557.37 716.13L557.37 634.455L557.37 634.455L47.45 634.455z" /></clipPath><clipPath id="222"><path d="M47.45 716.13L557.37 716.13L557.37 716.13L557.37 634.455L557.37 634.455L47.45 634.455z" /></clipPath><clipPath id="223"><path d="M47.45 716.13L557.37 716.13L557.37 716.13L557.37 634.455L557.37 634.455L47.45 634.455z" /></clipPath><clipPath id="224"><path d="M47.45 716.13L557.37 716.13L557.37 716.13L557.37 634.455L557.37 634.455L47.45 634.455z" /></clipPath><clipPath id="225"><path d="M47.45 716.13L557.37 716.13L557.37 716.13L557.37 634.455L557.37 634.455L47.45 634.455z" /></clipPath><clipPath id="226"><path d="M37.85 626.65L105.7 626.65L105.7 626.65L105.7 610.425L105.7 610.425L37.85 610.425z" /></clipPath><clipPath id="227"><path d="M37.85 626.65L105.7 626.65L105.7 626.65L105.7 610.425L105.7 610.425L37.85 610.425z" /></clipPath><clipPath id="228"><path d="M37.85 626.65L105.7 626.65L105.7 626.65L105.7 610.425L105.7 610.425L37.85 610.425z" /></clipPath><clipPath id="229"><path d="M-1.4E-08 840.9998L595.2 840.9998L595.2 840.9998L595.2 -0.8002319L595.2 -0.8002319L-1.4E-08 -0.8002319z" /></clipPath><clipPath id="230"><path d="M36.025 306.03L103.9 306.03L103.9 306.03L103.9 289.8051L103.9 289.8051L36.025 289.8051z" /></clipPath><clipPath id="231"><path d="M36.025 306.03L103.9 306.03L103.9 306.03L103.9 289.8051L103.9 289.8051L36.025 289.8051z" /></clipPath><clipPath id="232"><path d="M36.025 306.03L103.9 306.03L103.9 306.03L103.9 289.8051L103.9 289.8051L36.025 289.8051z" /></clipPath><clipPath id="233"><path d="M49.85 412.3L527.35 412.3L527.35 412.3L527.35 314.425L527.35 314.425L49.85 314.425z" /></clipPath><clipPath id="234"><path d="M49.85 412.3L527.35 412.3L527.35 412.3L527.35 314.425L527.35 314.425L49.85 314.425z" /></clipPath><clipPath id="235"><path d="M49.85 412.3L527.35 412.3L527.35 412.3L527.35 314.425L527.35 314.425L49.85 314.425z" /></clipPath><clipPath id="236"><path d="M49.85 412.3L527.35 412.3L527.35 412.3L527.35 314.425L527.35 314.425L49.85 314.425z" /></clipPath><clipPath id="237"><path d="M49.85 412.3L527.35 412.3L527.35 412.3L527.35 314.425L527.35 314.425L49.85 314.425z" /></clipPath><clipPath id="238"><path d="M49.85 412.3L527.35 412.3L527.35 412.3L527.35 314.425L527.35 314.425L49.85 314.425z" /></clipPath><clipPath id="239"><path d="M49.85 412.3L527.35 412.3L527.35 412.3L527.35 314.425L527.35 314.425L49.85 314.425z" /></clipPath><clipPath id="240"><path d="M49.85 412.3L527.35 412.3L527.35 412.3L527.35 314.425L527.35 314.425L49.85 314.425z" /></clipPath><clipPath id="241"><path d="M49.85 412.3L527.35 412.3L527.35 412.3L527.35 314.425L527.35 314.425L49.85 314.425z" /></clipPath><clipPath id="242"><path d="M49.85 412.3L527.35 412.3L527.35 412.3L527.35 314.425L527.35 314.425L49.85 314.425z" /></clipPath><clipPath id="243"><path d="M49.85 412.3L527.35 412.3L527.35 412.3L527.35 314.425L527.35 314.425L49.85 314.425z" /></clipPath><clipPath id="244"><path d="M49.85 412.3L527.35 412.3L527.35 412.3L527.35 314.425L527.35 314.425L49.85 314.425z" /></clipPath><clipPath id="245"><path d="M49.85 412.3L527.35 412.3L527.35 412.3L527.35 314.425L527.35 314.425L49.85 314.425z" /></clipPath><clipPath id="246"><path d="M49.85 412.3L527.35 412.3L527.35 412.3L527.35 314.425L527.35 314.425L49.85 314.425z" /></clipPath><clipPath id="247"><path d="M49.85 412.3L527.35 412.3L527.35 412.3L527.35 314.425L527.35 314.425L49.85 314.425z" /></clipPath><clipPath id="248"><path d="M49.85 412.3L527.35 412.3L527.35 412.3L527.35 314.425L527.35 314.425L49.85 314.425z" /></clipPath><clipPath id="249"><path d="M49.85 412.3L527.35 412.3L527.35 412.3L527.35 314.425L527.35 314.425L49.85 314.425z" /></clipPath><clipPath id="250"><path d="M49.85 412.3L527.35 412.3L527.35 412.3L527.35 314.425L527.35 314.425L49.85 314.425z" /></clipPath><clipPath id="251"><path d="M49.85 412.3L527.35 412.3L527.35 412.3L527.35 314.425L527.35 314.425L49.85 314.425z" /></clipPath><clipPath id="252"><path d="M49.85 412.3L527.35 412.3L527.35 412.3L527.35 314.425L527.35 314.425L49.85 314.425z" /></clipPath><clipPath id="253"><path d="M49.85 412.3L527.35 412.3L527.35 412.3L527.35 314.425L527.35 314.425L49.85 314.425z" /></clipPath><clipPath id="254"><path d="M49.85 412.3L527.35 412.3L527.35 412.3L527.35 314.425L527.35 314.425L49.85 314.425z" /></clipPath><clipPath id="255"><path d="M49.85 412.3L527.35 412.3L527.35 412.3L527.35 314.425L527.35 314.425L49.85 314.425z" /></clipPath><clipPath id="256"><path d="M49.85 412.3L527.35 412.3L527.35 412.3L527.35 314.425L527.35 314.425L49.85 314.425z" /></clipPath><clipPath id="257"><path d="M49.85 412.3L527.35 412.3L527.35 412.3L527.35 314.425L527.35 314.425L49.85 314.425z" /></clipPath><clipPath id="258"><path d="M49.85 412.3L527.35 412.3L527.35 412.3L527.35 314.425L527.35 314.425L49.85 314.425z" /></clipPath><clipPath id="259"><path d="M49.85 412.3L527.35 412.3L527.35 412.3L527.35 314.425L527.35 314.425L49.85 314.425z" /></clipPath><clipPath id="260"><path d="M49.85 412.3L527.35 412.3L527.35 412.3L527.35 314.425L527.35 314.425L49.85 314.425z" /></clipPath><clipPath id="261"><path d="M49.85 412.3L527.35 412.3L527.35 412.3L527.35 314.425L527.35 314.425L49.85 314.425z" /></clipPath><clipPath id="262"><path d="M49.85 412.3L527.35 412.3L527.35 412.3L527.35 314.425L527.35 314.425L49.85 314.425z" /></clipPath><clipPath id="263"><path d="M49.85 412.3L527.35 412.3L527.35 412.3L527.35 314.425L527.35 314.425L49.85 314.425z" /></clipPath><clipPath id="264"><path d="M49.85 412.3L527.35 412.3L527.35 412.3L527.35 314.425L527.35 314.425L49.85 314.425z" /></clipPath><clipPath id="265"><path d="M49.85 412.3L527.35 412.3L527.35 412.3L527.35 314.425L527.35 314.425L49.85 314.425z" /></clipPath><clipPath id="266"><path d="M49.85 412.3L527.35 412.3L527.35 412.3L527.35 314.425L527.35 314.425L49.85 314.425z" /></clipPath><clipPath id="267"><path d="M49.85 412.3L527.35 412.3L527.35 412.3L527.35 314.425L527.35 314.425L49.85 314.425z" /></clipPath><clipPath id="268"><path d="M49.85 412.3L527.35 412.3L527.35 412.3L527.35 314.425L527.35 314.425L49.85 314.425z" /></clipPath><clipPath id="269"><path d="M49.85 412.3L527.35 412.3L527.35 412.3L527.35 314.425L527.35 314.425L49.85 314.425z" /></clipPath><clipPath id="270"><path d="M49.85 412.3L527.35 412.3L527.35 412.3L527.35 314.425L527.35 314.425L49.85 314.425z" /></clipPath><clipPath id="271"><path d="M49.85 412.3L527.35 412.3L527.35 412.3L527.35 314.425L527.35 314.425L49.85 314.425z" /></clipPath><clipPath id="272"><path d="M49.85 412.3L527.35 412.3L527.35 412.3L527.35 314.425L527.35 314.425L49.85 314.425z" /></clipPath><clipPath id="273"><path d="M49.85 412.3L527.35 412.3L527.35 412.3L527.35 314.425L527.35 314.425L49.85 314.425z" /></clipPath><clipPath id="274"><path d="M49.85 412.3L527.35 412.3L527.35 412.3L527.35 314.425L527.35 314.425L49.85 314.425z" /></clipPath><clipPath id="275"><path d="M49.85 412.3L527.35 412.3L527.35 412.3L527.35 314.425L527.35 314.425L49.85 314.425z" /></clipPath><clipPath id="276"><path d="M36.025 430.9L103.9 430.9L103.9 430.9L103.9 414.7L103.9 414.7L36.025 414.7z" /></clipPath><clipPath id="277"><path d="M36.025 430.9L103.9 430.9L103.9 430.9L103.9 414.7L103.9 414.7L36.025 414.7z" /></clipPath><clipPath id="278"><path d="M36.025 430.9L103.9 430.9L103.9 430.9L103.9 414.7L103.9 414.7L36.025 414.7z" /></clipPath><clipPath id="279"><path d="M49.85 494.55L527.35 494.55L527.35 494.55L527.35 438.725L527.35 438.725L49.85 438.725z" /></clipPath><clipPath id="280"><path d="M49.85 494.55L527.35 494.55L527.35 494.55L527.35 438.725L527.35 438.725L49.85 438.725z" /></clipPath><clipPath id="281"><path d="M49.85 494.55L527.35 494.55L527.35 494.55L527.35 438.725L527.35 438.725L49.85 438.725z" /></clipPath><clipPath id="282"><path d="M49.85 494.55L527.35 494.55L527.35 494.55L527.35 438.725L527.35 438.725L49.85 438.725z" /></clipPath><clipPath id="283"><path d="M49.85 494.55L527.35 494.55L527.35 494.55L527.35 438.725L527.35 438.725L49.85 438.725z" /></clipPath><clipPath id="284"><path d="M49.85 494.55L527.35 494.55L527.35 494.55L527.35 438.725L527.35 438.725L49.85 438.725z" /></clipPath><clipPath id="285"><path d="M49.85 494.55L527.35 494.55L527.35 494.55L527.35 438.725L527.35 438.725L49.85 438.725z" /></clipPath><clipPath id="286"><path d="M49.85 494.55L527.35 494.55L527.35 494.55L527.35 438.725L527.35 438.725L49.85 438.725z" /></clipPath><clipPath id="287"><path d="M49.85 494.55L527.35 494.55L527.35 494.55L527.35 438.725L527.35 438.725L49.85 438.725z" /></clipPath><clipPath id="288"><path d="M49.85 494.55L527.35 494.55L527.35 494.55L527.35 438.725L527.35 438.725L49.85 438.725z" /></clipPath><clipPath id="289"><path d="M49.85 494.55L527.35 494.55L527.35 494.55L527.35 438.725L527.35 438.725L49.85 438.725z" /></clipPath><clipPath id="290"><path d="M49.85 494.55L527.35 494.55L527.35 494.55L527.35 438.725L527.35 438.725L49.85 438.725z" /></clipPath><clipPath id="291"><path d="M49.85 494.55L527.35 494.55L527.35 494.55L527.35 438.725L527.35 438.725L49.85 438.725z" /></clipPath><clipPath id="292"><path d="M49.85 494.55L527.35 494.55L527.35 494.55L527.35 438.725L527.35 438.725L49.85 438.725z" /></clipPath><clipPath id="293"><path d="M49.85 494.55L527.35 494.55L527.35 494.55L527.35 438.725L527.35 438.725L49.85 438.725z" /></clipPath><clipPath id="294"><path d="M49.85 494.55L527.35 494.55L527.35 494.55L527.35 438.725L527.35 438.725L49.85 438.725z" /></clipPath><clipPath id="295"><path d="M49.85 494.55L527.35 494.55L527.35 494.55L527.35 438.725L527.35 438.725L49.85 438.725z" /></clipPath><clipPath id="296"><path d="M49.85 494.55L527.35 494.55L527.35 494.55L527.35 438.725L527.35 438.725L49.85 438.725z" /></clipPath><clipPath id="297"><path d="M49.85 494.55L527.35 494.55L527.35 494.55L527.35 438.725L527.35 438.725L49.85 438.725z" /></clipPath><clipPath id="298"><path d="M49.85 494.55L527.35 494.55L527.35 494.55L527.35 438.725L527.35 438.725L49.85 438.725z" /></clipPath><clipPath id="299"><path d="M49.85 494.55L527.35 494.55L527.35 494.55L527.35 438.725L527.35 438.725L49.85 438.725z" /></clipPath><clipPath id="300"><path d="M49.85 494.55L527.35 494.55L527.35 494.55L527.35 438.725L527.35 438.725L49.85 438.725z" /></clipPath><clipPath id="301"><path d="M49.85 494.55L527.35 494.55L527.35 494.55L527.35 438.725L527.35 438.725L49.85 438.725z" /></clipPath><clipPath id="302"><path d="M49.85 494.55L527.35 494.55L527.35 494.55L527.35 438.725L527.35 438.725L49.85 438.725z" /></clipPath><clipPath id="303"><path d="M49.85 494.55L527.35 494.55L527.35 494.55L527.35 438.725L527.35 438.725L49.85 438.725z" /></clipPath><clipPath id="304"><path d="M48.05 789.975L557.98 789.975L557.98 789.975L557.98 729.925L557.98 729.925L48.05 729.925z" /></clipPath><clipPath id="305"><path d="M48.05 789.975L557.98 789.975L557.98 789.975L557.98 729.925L557.98 729.925L48.05 729.925z" /></clipPath><clipPath id="306"><path d="M48.05 789.975L557.98 789.975L557.98 789.975L557.98 729.925L557.98 729.925L48.05 729.925z" /></clipPath><clipPath id="307"><path d="M48.05 789.975L557.98 789.975L557.98 789.975L557.98 729.925L557.98 729.925L48.05 729.925z" /></clipPath><clipPath id="308"><path d="M48.05 789.975L557.98 789.975L557.98 789.975L557.98 729.925L557.98 729.925L48.05 729.925z" /></clipPath><clipPath id="309"><path d="M48.05 789.975L557.98 789.975L557.98 789.975L557.98 729.925L557.98 729.925L48.05 729.925z" /></clipPath><clipPath id="310"><path d="M48.05 789.975L557.98 789.975L557.98 789.975L557.98 729.925L557.98 729.925L48.05 729.925z" /></clipPath><clipPath id="311"><path d="M48.05 789.975L557.98 789.975L557.98 789.975L557.98 729.925L557.98 729.925L48.05 729.925z" /></clipPath><clipPath id="312"><path d="M48.05 789.975L557.98 789.975L557.98 789.975L557.98 729.925L557.98 729.925L48.05 729.925z" /></clipPath><clipPath id="313"><path d="M48.05 789.975L557.98 789.975L557.98 789.975L557.98 729.925L557.98 729.925L48.05 729.925z" /></clipPath><clipPath id="314"><path d="M48.05 789.975L557.98 789.975L557.98 789.975L557.98 729.925L557.98 729.925L48.05 729.925z" /></clipPath><clipPath id="315"><path d="M48.05 789.975L557.98 789.975L557.98 789.975L557.98 729.925L557.98 729.925L48.05 729.925z" /></clipPath><clipPath id="316"><path d="M48.05 789.975L557.98 789.975L557.98 789.975L557.98 729.925L557.98 729.925L48.05 729.925z" /></clipPath><clipPath id="317"><path d="M48.05 789.975L557.98 789.975L557.98 789.975L557.98 729.925L557.98 729.925L48.05 729.925z" /></clipPath><clipPath id="318"><path d="M48.05 789.975L557.98 789.975L557.98 789.975L557.98 729.925L557.98 729.925L48.05 729.925z" /></clipPath><clipPath id="319"><path d="M48.05 789.975L557.98 789.975L557.98 789.975L557.98 729.925L557.98 729.925L48.05 729.925z" /></clipPath><clipPath id="320"><path d="M48.05 789.975L557.98 789.975L557.98 789.975L557.98 729.925L557.98 729.925L48.05 729.925z" /></clipPath><clipPath id="321"><path d="M48.05 789.975L557.98 789.975L557.98 789.975L557.98 729.925L557.98 729.925L48.05 729.925z" /></clipPath><clipPath id="322"><path d="M37.85 724.53L105.7 724.53L105.7 724.53L105.7 708.305L105.7 708.305L37.85 708.305z" /></clipPath><clipPath id="323"><path d="M37.85 724.53L105.7 724.53L105.7 724.53L105.7 708.305L105.7 708.305L37.85 708.305z" /></clipPath><clipPath id="324"><path d="M37.85 724.53L105.7 724.53L105.7 724.53L105.7 708.305L105.7 708.305L37.85 708.305z" /></clipPath><clipPath id="325"><path d="M47.45 809.775L557.37 809.775L557.37 809.775L557.37 789.975L557.37 789.975L47.45 789.975z" /></clipPath><clipPath id="326"><path d="M47.45 809.775L557.37 809.775L557.37 809.775L557.37 789.975L557.37 789.975L47.45 789.975z" /></clipPath><clipPath id="327"><path d="M47.45 809.775L557.37 809.775L557.37 809.775L557.37 789.975L557.37 789.975L47.45 789.975z" /></clipPath><clipPath id="328"><path d="M47.45 809.775L557.37 809.775L557.37 809.775L557.37 789.975L557.37 789.975L47.45 789.975z" /></clipPath></defs><g transform="matrix(1.333333 0 0 1.333333 0 0)"><g><g clip-path="url(#1)"><g clip-path="url(#2)"></g><g clip-path="url(#3)"></g><g clip-path="url(#4)"></g><g clip-path="url(#5)"></g><g clip-path="url(#6)"></g><g clip-path="url(#7)"></g><g clip-path="url(#8)"></g><g clip-path="url(#9)"></g><g clip-path="url(#10)"></g><g clip-path="url(#11)"></g><g clip-path="url(#12)"></g><g clip-path="url(#13)"></g><g clip-path="url(#14)"></g><g clip-path="url(#15)"></g><g clip-path="url(#16)"></g><g clip-path="url(#17)"></g><g clip-path="url(#18)"></g><g clip-path="url(#19)"></g><g clip-path="url(#20)"></g><g clip-path="url(#21)"></g><g clip-path="url(#22)"></g><g clip-path="url(#23)"></g><g clip-path="url(#24)"></g><g clip-path="url(#25)"></g><g clip-path="url(#26)"></g><g clip-path="url(#27)"></g><g clip-path="url(#28)"></g><g clip-path="url(#29)"></g><g clip-path="url(#30)"></g><g clip-path="url(#31)"></g><g clip-path="url(#32)"></g><g clip-path="url(#33)"></g><g clip-path="url(#34)"></g><g clip-path="url(#35)"></g><g clip-path="url(#36)"></g><g clip-path="url(#37)"></g><g clip-path="url(#38)"></g><g clip-path="url(#39)"></g><g clip-path="url(#40)"></g><g clip-path="url(#41)"></g><g clip-path="url(#42)"></g><g clip-path="url(#43)"></g><g clip-path="url(#44)"></g><g clip-path="url(#45)"></g><g clip-path="url(#46)"></g><g clip-path="url(#47)"></g><g clip-path="url(#48)"></g><g clip-path="url(#49)"></g><g clip-path="url(#50)"></g><g clip-path="url(#51)"></g><g clip-path="url(#52)"></g><g clip-path="url(#53)"></g><g clip-path="url(#54)"></g><g clip-path="url(#55)"></g><g clip-path="url(#56)"></g><g clip-path="url(#57)"></g><g clip-path="url(#58)"></g><g clip-path="url(#59)"></g><g clip-path="url(#60)"></g><g clip-path="url(#61)"><g transform="matrix(0.3 0 0 0.29999 0 119.12)"><g transform="matrix(1 0 0 1 0 0)"><image x="0" y="0" xlink:href="img_01.png" width="2" height="2" /></g></g></g><g clip-path="url(#62)"><g clip-path="url(#63)"></g><g clip-path="url(#64)"></g><g clip-path="url(#65)"></g><g clip-path="url(#66)"></g><g clip-path="url(#67)"></g><g clip-path="url(#68)"></g><g clip-path="url(#69)"></g></g><g clip-path="url(#70)"><g clip-path="url(#71)"></g><g clip-path="url(#72)"></g><g clip-path="url(#73)"></g><g clip-path="url(#74)"></g><g clip-path="url(#75)"></g><g clip-path="url(#76)"></g><g clip-path="url(#77)"></g><g clip-path="url(#78)"></g><g clip-path="url(#79)"></g><g clip-path="url(#80)"></g><g clip-path="url(#81)"></g><g clip-path="url(#82)"></g><g clip-path="url(#83)"></g><g clip-path="url(#84)"></g><g clip-path="url(#85)"></g><g clip-path="url(#86)"></g><g clip-path="url(#87)"></g><g clip-path="url(#88)"></g><g clip-path="url(#89)"></g><g clip-path="url(#90)"></g><g clip-path="url(#91)"></g><g clip-path="url(#92)"></g><g clip-path="url(#93)"></g><g clip-path="url(#94)"></g><g clip-path="url(#95)"></g><g clip-path="url(#96)"></g><g clip-path="url(#97)"></g><g clip-path="url(#98)"></g><g clip-path="url(#99)"></g><g clip-path="url(#100)"></g><g clip-path="url(#101)"></g><g clip-path="url(#102)"></g><g clip-path="url(#103)"></g><g clip-path="url(#104)"></g><g clip-path="url(#105)"></g><g clip-path="url(#106)"></g><g clip-path="url(#107)"></g><g clip-path="url(#108)"></g><g clip-path="url(#109)"></g><g clip-path="url(#110)"></g><g clip-path="url(#111)"></g><g clip-path="url(#112)"></g><g clip-path="url(#113)"></g><g clip-path="url(#114)"></g><g clip-path="url(#115)"></g><g clip-path="url(#116)"></g><g clip-path="url(#117)"></g><g clip-path="url(#118)"></g><g clip-path="url(#119)"></g><g clip-path="url(#120)"></g><g clip-path="url(#121)"></g><g clip-path="url(#122)"></g><g clip-path="url(#123)"></g><g clip-path="url(#124)"></g><g clip-path="url(#125)"></g><g clip-path="url(#126)"></g><g clip-path="url(#127)"></g><g clip-path="url(#128)"></g><g clip-path="url(#129)"></g><g clip-path="url(#130)"></g><g clip-path="url(#131)"></g><g clip-path="url(#132)"></g><g clip-path="url(#133)"></g><g clip-path="url(#134)"></g><g clip-path="url(#135)"></g><g clip-path="url(#136)"></g></g><g clip-path="url(#137)"><g clip-path="url(#138)"></g><g clip-path="url(#139)"></g><g clip-path="url(#140)"></g><g clip-path="url(#141)"></g><g clip-path="url(#142)"></g><g clip-path="url(#143)"></g><g clip-path="url(#144)"></g><g clip-path="url(#145)"></g><g clip-path="url(#146)"></g><g clip-path="url(#147)"></g><g clip-path="url(#148)"></g><g clip-path="url(#149)"></g><g clip-path="url(#150)"></g><g clip-path="url(#151)"></g><g clip-path="url(#152)"></g><g clip-path="url(#153)"></g><g clip-path="url(#154)"></g></g><g clip-path="url(#155)"><g clip-path="url(#156)"></g><g clip-path="url(#157)"></g></g><path transform="matrix(1 0 0 -1 0 841)" d="M102.6 703.19C 102.6 703.71 103.02 704.13 103.54 704.13L103.54 704.13L115.46 704.13C 115.98 704.13 116.4 703.71 116.4 703.19L116.4 703.19L116.4 699.42C 116.4 698.9 115.98 698.48 115.46 698.48L115.46 698.48L103.54 698.48C 103.02 698.48 102.6 698.9 102.6 699.42z" stroke="none" fill="#161616" fill-rule="evenodd" /><path transform="matrix(1 0 0 -1 0 841)" d="M112.2 701.73L550.2 701.73" stroke="#161616" stroke-width="1.25" fill="none" /><path transform="matrix(1 0 0 -1 0 841)" d="M201.2 772.15L342.9 772.45" stroke="#161616" stroke-width="0.75" fill="none" /><path transform="matrix(1 0 0 -1 0 841)" d="M203.25 747.5L344.95 747.25" stroke="#161616" stroke-width="0.75" fill="none" /><path transform="matrix(1 0 0 -1 0 841)" d="M203.2 720.73L344.9 720.03" stroke="#161616" stroke-width="0.75" fill="none" /><g clip-path="url(#158)"><g clip-path="url(#159)"></g><g clip-path="url(#160)"></g><g clip-path="url(#161)"></g><g clip-path="url(#162)"></g><path transform="matrix(1 0 0 -1 0 841)" d="M409.63 775.15L540.55 775.15L540.55 775.15L540.55 775.75L540.55 775.75L409.63 775.75z" stroke="none" fill="#0000FF" fill-rule="evenodd" /><g clip-path="url(#163)"></g><g clip-path="url(#164)"></g><g clip-path="url(#165)"></g><g clip-path="url(#166)"></g><g clip-path="url(#167)"></g><g clip-path="url(#168)"></g><g clip-path="url(#169)"></g><g clip-path="url(#170)"></g><g clip-path="url(#171)"></g></g><path transform="matrix(1 0 0 -1 0 841)" d="M373.9 770.75L553.6 771.05" stroke="#161616" stroke-width="0.75" fill="none" /><path transform="matrix(1 0 0 -1 0 841)" d="M373.85 746.4L553.55 746.7" stroke="#161616" stroke-width="0.75" fill="none" /><path transform="matrix(1 0 0 -1 0 841)" d="M372.85 721.06L552.55 721.36" stroke="#161616" stroke-width="0.75" fill="none" /><g clip-path="url(#172)"><g clip-path="url(#173)"></g><g clip-path="url(#174)"></g></g><path transform="matrix(1 0 0 -1 0 841)" d="M100.55 333.2C 100.55 333.72 100.97 334.14 101.49 334.14L101.49 334.14L113.41 334.14C 113.93 334.14 114.35 333.72 114.35 333.2L114.35 333.2L114.35 329.43C 114.35 328.91 113.93 328.49 113.41 328.49L113.41 328.49L101.49 328.49C 100.97 328.49 100.55 328.91 100.55 329.43z" stroke="none" fill="#161616" fill-rule="evenodd" /><path transform="matrix(1 0 0 -1 0 841)" d="M110.15 331.74L548.15 331.74" stroke="#161616" stroke-width="1.25" fill="none" /><g clip-path="url(#175)"><g clip-path="url(#176)"></g><g clip-path="url(#177)"></g><g clip-path="url(#178)"></g><g clip-path="url(#179)"></g><g clip-path="url(#180)"></g><g clip-path="url(#181)"></g><g clip-path="url(#182)"></g><g clip-path="url(#183)"></g><g clip-path="url(#184)"></g><g clip-path="url(#185)"></g><g clip-path="url(#186)"></g><g clip-path="url(#187)"></g><g clip-path="url(#188)"></g><g clip-path="url(#189)"></g><g clip-path="url(#190)"></g><g clip-path="url(#191)"></g><g clip-path="url(#192)"></g><g clip-path="url(#193)"></g><g clip-path="url(#194)"></g><g clip-path="url(#195)"></g><g clip-path="url(#196)"></g><g clip-path="url(#197)"></g><g clip-path="url(#198)"></g><g clip-path="url(#199)"></g><g clip-path="url(#200)"></g><g clip-path="url(#201)"></g><g clip-path="url(#202)"></g><g clip-path="url(#203)"></g><g clip-path="url(#204)"></g><g clip-path="url(#205)"></g><g clip-path="url(#206)"></g></g><g clip-path="url(#207)"><g clip-path="url(#208)"></g><g clip-path="url(#209)"></g><g clip-path="url(#210)"></g><g clip-path="url(#211)"></g><g clip-path="url(#212)"></g><g clip-path="url(#213)"></g><g clip-path="url(#214)"></g><g clip-path="url(#215)"></g><g clip-path="url(#216)"></g><g clip-path="url(#217)"></g><g clip-path="url(#218)"></g><g clip-path="url(#219)"></g><g clip-path="url(#220)"></g><g clip-path="url(#221)"></g><g clip-path="url(#222)"></g><g clip-path="url(#223)"></g><g clip-path="url(#224)"></g><g clip-path="url(#225)"></g></g><g clip-path="url(#226)"><g clip-path="url(#227)"></g><g clip-path="url(#228)"></g></g><path transform="matrix(1 0 0 -1 0 841)" d="M100.65 224.2C 100.65 224.72 101.07 225.14 101.59 225.14L101.59 225.14L113.51 225.14C 114.03 225.14 114.45 224.72 114.45 224.2L114.45 224.2L114.45 220.43C 114.45 219.91 114.03 219.49 113.51 219.49L113.51 219.49L101.59 219.49C 101.07 219.49 100.65 219.91 100.65 220.43z" stroke="none" fill="#161616" fill-rule="evenodd" /><path transform="matrix(1 0 0 -1 0 841)" d="M110.25 222.74L548.25 222.74" stroke="#161616" stroke-width="1.25" fill="none" /><g clip-path="url(#229)"><path transform="matrix(1 0 0 -1 0 841)" d="M0.35008 1.15L11.70008 1.15L11.70008 1.15L11.70008 851.55L11.70008 851.55L0.35008 851.55z" stroke="none" fill="#161616" fill-rule="evenodd" /></g><g clip-path="url(#230)"><g clip-path="url(#231)"></g><g clip-path="url(#232)"></g></g><path transform="matrix(1 0 0 -1 0 841)" d="M100.6 543.88C 100.6 544.4 101.02 544.82 101.54 544.82L101.54 544.82L113.46 544.82C 113.98 544.82 114.4 544.4 114.4 543.88L114.4 543.88L114.4 540.11C 114.4 539.59 113.98 539.17 113.46 539.17L113.46 539.17L101.54 539.17C 101.02 539.17 100.6 539.59 100.6 540.11z" stroke="none" fill="#161616" fill-rule="evenodd" /><path transform="matrix(1 0 0 -1 0 841)" d="M110.2 542.42L548.2 542.42" stroke="#161616" stroke-width="1.25" fill="none" /><g clip-path="url(#233)"><g clip-path="url(#234)"></g><g clip-path="url(#235)"></g><g clip-path="url(#236)"></g><g clip-path="url(#237)"></g><g clip-path="url(#238)"></g><g clip-path="url(#239)"></g><g clip-path="url(#240)"></g><g clip-path="url(#241)"></g><g clip-path="url(#242)"></g><g clip-path="url(#243)"></g><g clip-path="url(#244)"></g><g clip-path="url(#245)"></g><g clip-path="url(#246)"></g><g clip-path="url(#247)"></g><g clip-path="url(#248)"></g><g clip-path="url(#249)"></g><g clip-path="url(#250)"></g><g clip-path="url(#251)"></g><g clip-path="url(#252)"></g><g clip-path="url(#253)"></g><g clip-path="url(#254)"></g><g clip-path="url(#255)"></g><g clip-path="url(#256)"></g><g clip-path="url(#257)"></g><g clip-path="url(#258)"></g><g clip-path="url(#259)"></g><g clip-path="url(#260)"></g><g clip-path="url(#261)"></g><g clip-path="url(#262)"></g><g clip-path="url(#263)"></g><g clip-path="url(#264)"></g><g clip-path="url(#265)"></g><g clip-path="url(#266)"></g><g clip-path="url(#267)"></g><g clip-path="url(#268)"></g><g clip-path="url(#269)"></g><g clip-path="url(#270)"></g><g clip-path="url(#271)"></g><g clip-path="url(#272)"></g><g clip-path="url(#273)"></g><g clip-path="url(#274)"></g><g clip-path="url(#275)"></g><path transform="matrix(1 0 0 -1 0 841)" d="M96.1 431.1L160.975 431.1L160.975 431.1L160.975 431.7L160.975 431.7L96.1 431.7z" stroke="none" fill="#0000FF" fill-rule="evenodd" /></g><g clip-path="url(#276)"><g clip-path="url(#277)"></g><g clip-path="url(#278)"></g></g><path transform="matrix(1 0 0 -1 0 841)" d="M100.6 418.97C 100.6 419.49 101.02 419.91 101.54 419.91L101.54 419.91L113.46 419.91C 113.98 419.91 114.4 419.49 114.4 418.97L114.4 418.97L114.4 415.2C 114.4 414.68 113.98 414.26 113.46 414.26L113.46 414.26L101.54 414.26C 101.02 414.26 100.6 414.68 100.6 415.2z" stroke="none" fill="#161616" fill-rule="evenodd" /><path transform="matrix(1 0 0 -1 0 841)" d="M110.2 417.51L548.2 417.51" stroke="#161616" stroke-width="1.25" fill="none" /><g clip-path="url(#279)"><g clip-path="url(#280)"></g><g clip-path="url(#281)"></g><g clip-path="url(#282)"></g><g clip-path="url(#283)"></g><g clip-path="url(#284)"></g><g clip-path="url(#285)"></g><g clip-path="url(#286)"></g><g clip-path="url(#287)"></g><g clip-path="url(#288)"></g><g clip-path="url(#289)"></g><g clip-path="url(#290)"></g><g clip-path="url(#291)"></g><g clip-path="url(#292)"></g><g clip-path="url(#293)"></g><g clip-path="url(#294)"></g><g clip-path="url(#295)"></g><g clip-path="url(#296)"></g><g clip-path="url(#297)"></g><g clip-path="url(#298)"></g><g clip-path="url(#299)"></g><g clip-path="url(#300)"></g><g clip-path="url(#301)"></g><g clip-path="url(#302)"></g><g clip-path="url(#303)"></g></g><g clip-path="url(#304)"><g clip-path="url(#305)"></g><g clip-path="url(#306)"></g><g clip-path="url(#307)"></g><g clip-path="url(#308)"></g><g clip-path="url(#309)"></g><g clip-path="url(#310)"></g><g clip-path="url(#311)"></g><g clip-path="url(#312)"></g><g clip-path="url(#313)"></g><g clip-path="url(#314)"></g><g clip-path="url(#315)"></g><g clip-path="url(#316)"></g><g clip-path="url(#317)"></g><g clip-path="url(#318)"></g><g clip-path="url(#319)"></g><g clip-path="url(#320)"></g><g clip-path="url(#321)"></g></g><g clip-path="url(#322)"><g clip-path="url(#323)"></g><g clip-path="url(#324)"></g></g><path transform="matrix(1 0 0 -1 0 841)" d="M100.45 126.3C 100.45 126.82 100.87 127.24 101.39 127.24L101.39 127.24L113.31 127.24C 113.83 127.24 114.25 126.82 114.25 126.3L114.25 126.3L114.25 122.54C 114.25 122.02 113.83 121.59 113.31 121.59L113.31 121.59L101.39 121.59C 100.87 121.59 100.45 122.02 100.45 122.54z" stroke="none" fill="#161616" fill-rule="evenodd" /><path transform="matrix(1 0 0 -1 0 841)" d="M110.05 124.84L548.05 124.84" stroke="#161616" stroke-width="1.25" fill="none" /><g clip-path="url(#325)"><g clip-path="url(#326)"></g><g clip-path="url(#327)"></g><g clip-path="url(#328)"></g></g></g></g></g></svg>